#N canvas 327 0 1237 963.969 12;
#X msg 244 991 set \$1;
#X obj 71 529 mtof;
#X obj 71 1081 *~;
#X obj 71 603 vline~;
#X obj 71 1371 outlet~;
#X obj 345 445 * 12;
#X obj 71 492 +;
#X floatatom 71 419 5 0 0 0 - - -, f 5;
#X obj 71 562 pack 0 0, f 187;
#X obj 71 753 +~;
#X floatatom 1082 609 4 1 2 0 - - -, f 4;
#X obj 71 713 *~;
#X obj 71 57 inlet midi;
#X obj 1377 57 inlet porta;
#X obj 1082 57 inlet multi;
#X obj 1178 57 inlet detune;
#X obj 1281 57 inlet volume;
#X obj 244 57 inlet wave;
#X obj 1281 1001 line~;
#X obj 1281 972 pack 0 12;
#X obj 1178 691 line~;
#X obj 1178 662 pack 0 12;
#X obj 1082 666 line~;
#X obj 1082 637 pack 0 12;
#X obj 244 95 sel 0 1 2 3 4;
#X msg 244 126 sine;
#X msg 244 157 triangle;
#X msg 244 188 square;
#X msg 244 219 sawtooth;
#X msg 244 250 customWave;
#X symbolatom 244 641 10 0 0 0 - - -, f 10;
#X obj 244 607 pack symbol;
#X obj 71 782 phasor~;
#X obj 71 1000 +~ 1;
#X obj 71 1036 tabread4~;
#X obj 71 974 *~ 2048;
#X obj 121 812 cos~;
#X floatatom 822 773 5 0 0 0 - - -, f 5;
#X floatatom 958 804 5 0 0 0 - - -, f 5;
#X obj 96 877 *~ -0.5;
#X obj 96 903 +~ 0.5, f 7;
#X obj 71 949 mux~;
#X obj 549 897 tgl 15 0 empty empty empty 17 7 0 10 -262144 -1 -1 1
1;
#X obj 822 756 hsl 128 15 -5 5 0 1 empty empty empty -2 -8 0 10 -262144
-1 -1 9339 1;
#X obj 958 787 hsl 128 15 -5 5 0 1 empty empty empty -2 -8 0 10 -262144
-1 -1 3658 1;
#X obj 96 844 mux~;
#X obj 707 793 tgl 15 0 empty empty empty 17 7 0 10 -262144 -1 -1 1
1;
#X obj 822 794 pack 0 12;
#X obj 958 825 pack 0 12;
#X obj 822 816 line;
#X obj 958 847 line;
#X obj 324 376 bng 15 250 50 0 empty empty empty 17 7 0 10 -262144
-1 -1;
#X obj 707 57 inlet cosToggle;
#X obj 549 57 inlet tableModToggle;
#X obj 822 57 inlet phasorModA;
#X obj 958 57 inlet phasorModB;
#X obj 1045 1212 block~ 1024 1 16;
#X obj 100 1288 rzero~ -1;
#X obj 100 1311 rzero~ -1;
#X obj 100 1334 rzero~ -1;
#X obj 450 1251 / 24000;
#X obj 100 1117 *~;
#X obj 100 1142 rpole~;
#X obj 100 1167 *~;
#X obj 100 1202 cpole~, f 10;
#X obj 100 1231 cpole~, f 10;
#X msg 450 1186 12000;
#X obj 100 1260 *~ 0.125;
#X obj 531 1192 / 2;
#X obj 450 1276 / 16;
#X obj 531 1134 samplerate~;
#X obj 450 1086 loadbang;
#X obj 131 1089 buttercoef3;
#X obj 531 1163 / 16;
#X floatatom 531 1221 6 0 0 0 - - -, f 6;
#X floatatom 450 1301 7 0 0 0 - - -, f 7;
#X obj 450 1111 t b b;
#X obj 345 57 inlet octave;
#X connect 0 0 34 0;
#X connect 1 0 8 0;
#X connect 2 0 61 0;
#X connect 3 0 11 0;
#X connect 5 0 6 1;
#X connect 6 0 1 0;
#X connect 7 0 6 0;
#X connect 8 0 3 0;
#X connect 9 0 32 0;
#X connect 10 0 23 0;
#X connect 11 0 9 0;
#X connect 12 0 7 0;
#X connect 13 0 8 1;
#X connect 14 0 10 0;
#X connect 15 0 21 0;
#X connect 16 0 19 0;
#X connect 17 0 24 0;
#X connect 18 0 2 1;
#X connect 19 0 18 0;
#X connect 20 0 9 1;
#X connect 21 0 20 0;
#X connect 22 0 11 1;
#X connect 23 0 22 0;
#X connect 24 0 25 0;
#X connect 24 1 26 0;
#X connect 24 2 27 0;
#X connect 24 3 28 0;
#X connect 24 4 29 0;
#X connect 25 0 31 0;
#X connect 26 0 31 0;
#X connect 27 0 31 0;
#X connect 28 0 31 0;
#X connect 29 0 31 0;
#X connect 30 0 0 0;
#X connect 31 0 30 0;
#X connect 32 0 41 0;
#X connect 32 0 45 0;
#X connect 32 0 36 0;
#X connect 33 0 34 0;
#X connect 34 0 2 0;
#X connect 35 0 33 0;
#X connect 36 0 45 1;
#X connect 37 0 47 0;
#X connect 38 0 48 0;
#X connect 39 0 40 0;
#X connect 40 0 41 1;
#X connect 41 0 35 0;
#X connect 42 0 41 0;
#X connect 43 0 37 0;
#X connect 44 0 38 0;
#X connect 45 0 39 0;
#X connect 46 0 45 0;
#X connect 47 0 49 0;
#X connect 48 0 50 0;
#X connect 49 0 39 1;
#X connect 50 0 40 1;
#X connect 51 0 7 0;
#X connect 52 0 46 0;
#X connect 53 0 42 0;
#X connect 54 0 43 0;
#X connect 55 0 44 0;
#X connect 57 0 58 0;
#X connect 58 0 59 0;
#X connect 59 0 4 0;
#X connect 60 0 69 0;
#X connect 61 0 62 0;
#X connect 62 0 63 0;
#X connect 63 0 64 0;
#X connect 64 0 65 0;
#X connect 64 1 65 1;
#X connect 65 0 67 0;
#X connect 66 0 60 0;
#X connect 67 0 57 0;
#X connect 68 0 60 1;
#X connect 68 0 74 0;
#X connect 69 0 72 0;
#X connect 69 0 75 0;
#X connect 70 0 73 0;
#X connect 71 0 76 0;
#X connect 72 0 61 1;
#X connect 72 1 63 1;
#X connect 72 2 62 1;
#X connect 72 3 64 2;
#X connect 72 3 65 2;
#X connect 72 4 64 3;
#X connect 72 5 65 3;
#X connect 73 0 68 0;
#X connect 76 0 66 0;
#X connect 76 1 70 0;
#X connect 77 0 5 0;
#X connect 77 0 51 0;
