#N canvas 905 75 1116 963 12;
#X msg 150 821 set \$1;
#X obj 77 389 mtof;
#X obj 77 900 *~;
#X obj 77 469 vline~;
#X obj 77 1230 outlet~;
#X obj 744 227 vsl 17 24 0 0.7 0 1 empty empty volume -4 -7 1 8 -262144
-1 -1 2300 1;
#X obj 449 302 * 12;
#X obj 77 346 +;
#X floatatom 77 299 5 0 0 0 - - -, f 5;
#X obj 77 428 pack 0 0, f 111;
#X obj 641 227 hsl 58 11 -5 5 0 1 empty empty detune 19 -6 1 8 -262144
-1 -1 2850 1;
#X obj 77 683 +~;
#X floatatom 545 229 4 1 2 0 - - -, f 4;
#X obj 77 603 *~;
#X obj 77 57 inlet midi;
#X obj 851 57 inlet porta;
#X obj 545 57 inlet multi;
#X obj 641 57 inlet detune;
#X obj 744 57 inlet volume;
#X obj 190 57 inlet wave;
#X obj 744 840 line~;
#X obj 744 811 pack 0 12;
#X obj 641 631 line~;
#X obj 641 602 pack 0 12;
#X obj 545 551 line~;
#X obj 190 86 sel 0 1 2 3 4;
#X msg 115 151 sine;
#X msg 153 151 triangle;
#X msg 219 151 square;
#X msg 271 151 sawtooth;
#X msg 337 151 customWave;
#X symbolatom 150 246 10 0 0 0 - - -, f 10;
#X obj 150 206 pack symbol;
#X obj 77 738 phasor~;
#X obj 77 790 +~ 1;
#X obj 77 856 tabread4~;
#X obj 77 764 *~ 2048;
#X obj 416 258 bng 15 250 50 0 empty empty empty 17 7 0 10 -262144
-1 -1;
#X obj 77 1128 rzero~ -1;
#X obj 77 1151 rzero~ -1;
#X obj 77 1174 rzero~ -1;
#X obj 889 836 / 24000;
#X obj 77 957 *~;
#X obj 77 982 rpole~;
#X obj 77 1007 *~;
#X obj 77 1042 cpole~, f 10;
#X obj 77 1071 cpole~, f 10;
#X msg 889 771 12000;
#X obj 77 1100 *~ 0.125;
#X obj 970 777 / 2;
#X obj 889 861 / 16;
#X obj 970 719 samplerate~;
#X obj 889 671 loadbang;
#X obj 108 929 buttercoef3;
#X obj 970 748 / 16;
#X floatatom 970 806 6 0 0 0 - - -, f 6;
#X floatatom 889 886 7 0 0 0 - - -, f 7;
#X obj 889 696 t b b;
#X obj 668 1066 block~ 1024 1 16;
#X obj 545 522 pack 1 12;
#X obj 449 57 inlet octave;
#X floatatom 435 356 5 0 0 0 - - -, f 5;
#X connect 0 0 35 0;
#X connect 1 0 9 0;
#X connect 2 0 42 0;
#X connect 3 0 13 0;
#X connect 5 0 21 0;
#X connect 6 0 7 1;
#X connect 6 0 61 0;
#X connect 7 0 1 0;
#X connect 8 0 7 0;
#X connect 9 0 3 0;
#X connect 10 0 23 0;
#X connect 11 0 33 0;
#X connect 12 0 59 0;
#X connect 13 0 11 0;
#X connect 14 0 8 0;
#X connect 15 0 9 1;
#X connect 16 0 12 0;
#X connect 17 0 10 0;
#X connect 18 0 5 0;
#X connect 19 0 25 0;
#X connect 20 0 2 1;
#X connect 21 0 20 0;
#X connect 22 0 11 1;
#X connect 23 0 22 0;
#X connect 24 0 13 1;
#X connect 25 0 26 0;
#X connect 25 1 27 0;
#X connect 25 2 28 0;
#X connect 25 3 29 0;
#X connect 25 4 30 0;
#X connect 26 0 32 0;
#X connect 27 0 32 0;
#X connect 28 0 32 0;
#X connect 29 0 32 0;
#X connect 30 0 32 0;
#X connect 31 0 0 0;
#X connect 32 0 31 0;
#X connect 33 0 36 0;
#X connect 34 0 35 0;
#X connect 35 0 2 0;
#X connect 36 0 34 0;
#X connect 37 0 8 0;
#X connect 38 0 39 0;
#X connect 39 0 40 0;
#X connect 40 0 4 0;
#X connect 41 0 50 0;
#X connect 42 0 43 0;
#X connect 43 0 44 0;
#X connect 44 0 45 0;
#X connect 45 0 46 0;
#X connect 45 1 46 1;
#X connect 46 0 48 0;
#X connect 47 0 41 0;
#X connect 48 0 38 0;
#X connect 49 0 41 1;
#X connect 49 0 55 0;
#X connect 50 0 53 0;
#X connect 50 0 56 0;
#X connect 51 0 54 0;
#X connect 52 0 57 0;
#X connect 53 0 42 1;
#X connect 53 1 44 1;
#X connect 53 2 43 1;
#X connect 53 3 45 2;
#X connect 53 3 46 2;
#X connect 53 4 45 3;
#X connect 53 5 46 3;
#X connect 54 0 49 0;
#X connect 57 0 47 0;
#X connect 57 1 51 0;
#X connect 59 0 24 0;
#X connect 60 0 6 0;
#X connect 60 0 37 0;
