#N canvas 715 134 1046 683 12;
#X floatatom 675 209 5 0 5000 0 - - -, f 5;
#X obj 296 520 +~, f 6;
#X obj 335 489 *~;
#X obj 296 489 *~;
#X obj 675 357 line~;
#X obj 675 327 pack 0 100;
#X obj 433 357 line~;
#X obj 335 60 inlet~ L;
#X obj 70 422 delread4~ \$0-recBufferL 1000;
#X obj 71 567 delwrite~ \$0-recBufferL 5000;
#X obj 296 599 outlet~ L;
#X obj 415 489 *~;
#X obj 415 60 inlet~ R;
#X obj 415 520 +~, f 6;
#X obj 454 489 *~;
#X obj 675 422 delread4~ \$0-recBufferR 1000;
#X obj 561 567 delwrite~ \$0-recBufferR 5000;
#X obj 415 599 outlet~ R;
#X obj 675 60 inlet barLength;
#X obj 825 60 inlet howManyBars;
#X floatatom 675 89 5 0 0 0 - - -, f 5;
#X floatatom 825 89 5 0 0 0 - - -, f 5;
#X obj 675 177 * 1;
#X obj 825 117 t b f;
#X msg 545 276 1;
#X msg 590 276 0;
#X obj 590 246 delay;
#X obj 545 60 inlet capture;
#X obj 545 109 bng 15 250 50 0 empty empty empty 17 7 0 10 -262144
-1 -1;
#X msg 590 406 1;
#X msg 545 406 0;
#X obj 433 327 pack 0 10;
#X connect 0 0 5 0;
#X connect 0 0 26 1;
#X connect 1 0 9 0;
#X connect 1 0 10 0;
#X connect 2 0 1 1;
#X connect 3 0 1 0;
#X connect 4 0 15 0;
#X connect 4 0 8 0;
#X connect 5 0 4 0;
#X connect 6 0 2 1;
#X connect 6 0 11 1;
#X connect 7 0 2 0;
#X connect 8 0 3 0;
#X connect 11 0 13 0;
#X connect 12 0 11 0;
#X connect 13 0 16 0;
#X connect 13 0 17 0;
#X connect 14 0 13 1;
#X connect 15 0 14 0;
#X connect 18 0 20 0;
#X connect 19 0 21 0;
#X connect 20 0 22 0;
#X connect 21 0 23 0;
#X connect 22 0 0 0;
#X connect 23 0 22 0;
#X connect 23 1 22 1;
#X connect 24 0 31 0;
#X connect 25 0 31 0;
#X connect 26 0 25 0;
#X connect 26 0 29 0;
#X connect 27 0 28 0;
#X connect 28 0 24 0;
#X connect 28 0 26 0;
#X connect 28 0 30 0;
#X connect 29 0 14 1;
#X connect 29 0 3 1;
#X connect 30 0 14 1;
#X connect 30 0 3 1;
#X connect 31 0 6 0;
