#N canvas 390 262 791 558 12;
#X obj 122 153 metro;
#X floatatom 282 111 10 0 0 0 - - -, f 10;
#X obj 300 220 / 100;
#X obj 300 252 t b f;
#X obj 122 412 bng 15 50 20 0 empty empty empty 17 7 0 10 -262144 -1
-1;
#X obj 181 412 bng 15 50 20 0 empty empty empty 17 7 0 10 -262144 -1
-1;
#X obj 122 245 t b b;
#X obj 183 284 f 0;
#X obj 220 284 == 0;
#X obj 122 334 spigot;
#X obj 181 334 spigot;
#X obj 181 379 del;
#X obj 122 461 bng 15 50 20 0 empty empty empty 17 7 0 10 -262144 -1
-1;
#X obj 282 284 *;
#X obj 122 53 inlet run;
#X obj 282 53 inlet ms;
#X obj 122 485 outlet tickswing;
#X obj 421 53 inlet swing;
#X msg 151 111 stop;
#X obj 201 52 inlet stop;
#X msg 201 245 1;
#X connect 0 0 6 0;
#X connect 1 0 0 1;
#X connect 1 0 13 0;
#X connect 2 0 3 0;
#X connect 3 0 13 0;
#X connect 3 1 13 1;
#X connect 4 0 12 0;
#X connect 5 0 12 0;
#X connect 6 0 10 0;
#X connect 6 0 9 0;
#X connect 6 1 7 0;
#X connect 7 0 8 0;
#X connect 7 0 9 1;
#X connect 8 0 7 1;
#X connect 8 0 10 1;
#X connect 9 0 4 0;
#X connect 10 0 11 0;
#X connect 11 0 5 0;
#X connect 12 0 16 0;
#X connect 13 0 11 1;
#X connect 14 0 0 0;
#X connect 15 0 1 0;
#X connect 17 0 2 0;
#X connect 18 0 0 0;
#X connect 19 0 18 0;
#X connect 19 0 20 0;
#X connect 20 0 7 1;
