#N canvas 1177 140 1025 1080.97 12;
#X obj 264 224 cnv 15 292 41 empty empty empty 20 12 0 14 -261122 -66577
0;
#X obj 265 225 cnv 15 80 39 empty empty empty 4 27 1 10 -261593 -66577
0;
#X msg 269 818 set \$1;
#X obj 96 396 mtof;
#X obj 96 907 *~;
#X obj 96 476 vline~;
#X obj 96 1227 outlet~;
#X obj 528 234 vsl 17 24 0 0.7 0 1 empty empty volume -4 -7 1 8 -262144
-1 -1 2300 1;
#X obj 114 326 * 12;
#X obj 96 353 +;
#X floatatom 96 286 5 0 0 0 - - -, f 5;
#X obj 96 435 pack 0 0, f 111;
#X obj 450 234 hsl 58 11 -5 5 0 1 empty empty detune 19 -6 1 8 -262144
-1 -1 2895 1;
#X obj 474 249 bng 11 250 50 0 empty empty reset 12 4 1 8 -262144 -1
-1;
#X msg 474 295 0;
#X obj 96 680 +~;
#X obj 390 231 vsl 14 26 1 2 0 1 empty empty mult 0 -5 1 7 -262144
-1 -1 0 1;
#X floatatom 413 236 4 0 0 0 - - -, f 4;
#X obj 96 600 *~;
#X obj 96 64 inlet midi;
#X obj 866 64 inlet porta;
#X obj 564 64 inlet multi;
#X obj 660 64 inlet detune;
#X obj 763 64 inlet volume;
#X obj 269 64 inlet wave;
#X obj 528 847 line~;
#X obj 528 818 pack 0 12;
#X obj 450 628 line~;
#X obj 450 599 pack 0 12;
#X obj 413 548 line~;
#X obj 413 519 pack 0 12;
#X obj 269 227 hradio 14 0 1 5 empty empty empty 0 -8 0 10 -261866
-235649 -1 2;
#X obj 147 126 sel 0 1 2 3 4;
#X msg 147 153 sine;
#X msg 185 153 triangle;
#X msg 251 153 square;
#X msg 303 153 sawtooth;
#X msg 369 153 customWave;
#X symbolatom 269 243 10 0 0 0 - - -, f 10;
#X obj 147 180 pack symbol;
#X obj 96 797 +~ 1;
#X obj 96 863 tabread4~;
#X obj 96 771 *~ 2048;
#X obj 351 250 nbx 3 12 -5 5 0 1 empty empty octave 0 -8 1 10 -262144
-1 -1 -2 256 0;
#X obj 283 377 +;
#X obj 351 227 bng 12 250 50 0 empty empty empty 17 7 0 10 -262144
-1 -1;
#X obj 371 227 bng 12 250 50 0 empty empty empty 17 7 0 8 -262144 -1
-1;
#X obj 328 378 int;
#X msg 283 336 -1;
#X msg 321 336 1;
#N canvas 1418 282 422 425 once 0;
#X obj 174 194 spigot;
#X obj 107 51 inlet;
#X obj 174 132 t a b;
#X obj 206 162 f 1;
#X obj 174 226 t a b;
#X obj 206 268 f 0;
#X obj 174 309 outlet;
#X obj 280 51 inlet;
#X obj 280 92 bang;
#X obj 280 132 f 1;
#X obj 107 92 route bang;
#X obj 107 132 t b b;
#X obj 107 194 spigot;
#X obj 107 226 t b b;
#X connect 0 0 4 0;
#X connect 1 0 10 0;
#X connect 2 0 0 0;
#X connect 2 1 3 0;
#X connect 3 0 0 1;
#X connect 3 0 12 1;
#X connect 4 0 6 0;
#X connect 4 1 5 0;
#X connect 5 0 3 1;
#X connect 7 0 8 0;
#X connect 8 0 9 0;
#X connect 9 0 3 1;
#X connect 10 0 11 0;
#X connect 10 1 2 0;
#X connect 11 0 12 0;
#X connect 11 1 3 0;
#X connect 12 0 13 0;
#X connect 13 0 6 0;
#X connect 13 1 5 0;
#X restore 359 336 pd once;
#X obj 358 64 inlet octDown;
#X obj 468 64 inlet octUp;
#X obj 183 250 bng 15 250 50 0 empty empty empty 17 7 0 10 -262144
-1 -1;
#X obj 651 1136 block~ 1024 1 16;
#X obj 96 1126 rzero~ -1;
#X obj 96 1149 rzero~ -1;
#X obj 96 1172 rzero~ -1;
#X obj 645 848 / 24000;
#X obj 96 955 *~;
#X obj 96 980 rpole~;
#X obj 96 1005 *~;
#X obj 96 1040 cpole~, f 10;
#X obj 96 1069 cpole~, f 10;
#X msg 645 800 12000;
#X obj 96 1098 *~ 0.125;
#X obj 708 820 / 2;
#X obj 645 873 / 16;
#X obj 708 706 samplerate~;
#X obj 676 629 loadbang;
#X floatatom 708 735 8 0 0 0 - - -, f 8;
#X obj 126 929 buttercoef3;
#X obj 708 763 / 16;
#X floatatom 708 792 8 0 0 0 - - -, f 8;
#X floatatom 708 849 6 0 0 0 - - -, f 6;
#X floatatom 645 922 7 0 0 0 - - -, f 7;
#X obj 676 658 t b b;
#X obj 963 64 inlet var1;
#X obj 1067 63 inlet var2;
#N canvas 1715 165 728 696.969 tableMod 0;
#X obj 512 747 block~ 1024 1 1;
#X obj 179 168 phasor~;
#X obj 321 384 hsl 195 20 0.001 0.999 0 0 empty empty empty -2 -8 0
10 -262144 -1 -1 450 1;
#X floatatom 340 444 10 0 0 0 - - -, f 10;
#X obj 179 624 expr~ if($v1 < $v2 \, $v1 * $v3 / $v2 \, (($v1 - $v2)
* (1 - $v3) / (1 - $v2)) + $v3), f 41;
#X floatatom 598 480 10 0 0 0 - - -, f 10;
#X obj 576 278 vsl 20 135 0 1 0 0 empty empty empty 0 -9 0 10 -262144
-1 -1 11450 1;
#X obj 321 529 line~;
#X obj 321 501 pack f 10;
#X obj 576 565 line~;
#X obj 576 537 pack f 10;
#X floatatom 576 230 5 0 0 0 - - -, f 5;
#X floatatom 321 335 5 0 0 0 - - -, f 5;
#X msg 681 180 0.5;
#X msg 766 180 1;
#X msg 720 180 0.75;
#X msg 635 180 0.25;
#X msg 596 180 0;
#X msg 426 253 0.5;
#X msg 511 253 1;
#X msg 465 253 0.75;
#X msg 380 253 0.25;
#X msg 341 253 0;
#X obj 60 209 *~ -1;
#X obj 60 238 +~ 0.5;
#X obj 60 267 *~ 2;
#X obj 60 706 *~;
#X obj 179 98 inlet~;
#X obj 60 779 outlet~;
#X obj 323 98 inlet var1;
#X obj 576 98 inlet var2;
#X connect 1 0 4 0;
#X connect 1 0 23 0;
#X connect 2 0 3 0;
#X connect 2 0 8 0;
#X connect 4 0 26 1;
#X connect 6 0 5 0;
#X connect 6 0 10 0;
#X connect 7 0 4 1;
#X connect 8 0 7 0;
#X connect 9 0 4 2;
#X connect 10 0 9 0;
#X connect 11 0 6 0;
#X connect 12 0 2 0;
#X connect 13 0 11 0;
#X connect 14 0 11 0;
#X connect 15 0 11 0;
#X connect 16 0 11 0;
#X connect 17 0 11 0;
#X connect 18 0 12 0;
#X connect 19 0 12 0;
#X connect 20 0 12 0;
#X connect 21 0 12 0;
#X connect 22 0 12 0;
#X connect 23 0 24 0;
#X connect 24 0 25 0;
#X connect 25 0 26 0;
#X connect 26 0 28 0;
#X connect 27 0 1 0;
#X connect 29 0 12 0;
#X connect 30 0 11 0;
#X restore 96 724 pd tableMod;
#X connect 2 0 41 0;
#X connect 3 0 11 0;
#X connect 4 0 59 0;
#X connect 5 0 18 0;
#X connect 7 0 26 0;
#X connect 8 0 9 1;
#X connect 9 0 3 0;
#X connect 10 0 9 0;
#X connect 11 0 5 0;
#X connect 12 0 28 0;
#X connect 13 0 14 0;
#X connect 14 0 12 0;
#X connect 15 0 79 0;
#X connect 16 0 17 0;
#X connect 17 0 30 0;
#X connect 18 0 15 0;
#X connect 19 0 10 0;
#X connect 20 0 11 1;
#X connect 21 0 16 0;
#X connect 22 0 12 0;
#X connect 23 0 7 0;
#X connect 24 0 31 0;
#X connect 25 0 4 1;
#X connect 26 0 25 0;
#X connect 27 0 15 1;
#X connect 28 0 27 0;
#X connect 29 0 18 1;
#X connect 30 0 29 0;
#X connect 31 0 32 0;
#X connect 32 0 33 0;
#X connect 32 1 34 0;
#X connect 32 2 35 0;
#X connect 32 3 36 0;
#X connect 32 4 37 0;
#X connect 33 0 39 0;
#X connect 34 0 39 0;
#X connect 35 0 39 0;
#X connect 36 0 39 0;
#X connect 37 0 39 0;
#X connect 38 0 2 0;
#X connect 39 0 38 0;
#X connect 40 0 41 0;
#X connect 41 0 4 0;
#X connect 42 0 40 0;
#X connect 43 0 8 0;
#X connect 43 0 50 0;
#X connect 44 0 47 0;
#X connect 45 0 48 0;
#X connect 45 0 53 0;
#X connect 46 0 49 0;
#X connect 46 0 53 0;
#X connect 47 0 44 1;
#X connect 47 0 43 0;
#X connect 48 0 44 0;
#X connect 49 0 44 0;
#X connect 50 0 44 1;
#X connect 51 0 45 0;
#X connect 52 0 46 0;
#X connect 53 0 10 0;
#X connect 55 0 56 0;
#X connect 56 0 57 0;
#X connect 57 0 6 0;
#X connect 58 0 67 0;
#X connect 59 0 60 0;
#X connect 60 0 61 0;
#X connect 61 0 62 0;
#X connect 62 0 63 0;
#X connect 62 1 63 1;
#X connect 63 0 65 0;
#X connect 64 0 58 0;
#X connect 65 0 55 0;
#X connect 66 0 58 1;
#X connect 66 0 74 0;
#X connect 67 0 71 0;
#X connect 67 0 75 0;
#X connect 68 0 70 0;
#X connect 69 0 76 0;
#X connect 70 0 72 0;
#X connect 71 0 59 1;
#X connect 71 1 61 1;
#X connect 71 2 60 1;
#X connect 71 3 62 2;
#X connect 71 3 63 2;
#X connect 71 4 62 3;
#X connect 71 5 63 3;
#X connect 72 0 73 0;
#X connect 73 0 66 0;
#X connect 76 0 64 0;
#X connect 76 1 68 0;
#X connect 77 0 79 1;
#X connect 78 0 79 2;
#X connect 79 0 42 0;
