#N canvas 318 0 1255 963.969 12;
#X msg 259 1139 set \$1;
#X obj 86 417 mtof;
#X obj 86 1228 *~;
#X obj 86 497 vline~;
#X obj 86 1528 outlet~;
#X obj 418 328 * 12;
#X obj 86 374 +;
#X floatatom 86 307 5 0 0 0 - - -, f 5;
#X obj 86 456 pack 0 0, f 104;
#X obj 86 671 +~;
#X obj 86 591 *~;
#X obj 86 85 inlet midi;
#X obj 816 85 inlet porta;
#X obj 522 85 inlet multi;
#X obj 610 85 inlet detune;
#X obj 713 85 inlet volume;
#X obj 259 85 inlet wave;
#X obj 708 1148 line~;
#X obj 708 1119 pack 0 12;
#X obj 610 619 line~;
#X obj 610 590 pack 0 12;
#X obj 522 539 line~;
#X obj 522 510 pack 0 12;
#X obj 177 127 sel 0 1 2 3 4;
#X msg 97 174 sine;
#X msg 135 174 triangle;
#X msg 201 174 square;
#X msg 253 174 sawtooth;
#X msg 319 174 customWave;
#X symbolatom 259 254 10 0 0 0 - - -, f 10;
#X obj 217 221 pack symbol;
#X obj 86 1148 +~ 1;
#X obj 86 1184 tabread4~;
#X obj 86 1122 *~ 2048;
#X obj 403 271 bng 15 250 50 0 empty empty empty 17 7 0 10 -262144
-1 -1;
#X obj 86 719 phasor~;
#X obj 808 661 hsl 195 20 0.001 0.999 0 0 empty empty empty -2 -8 0
10 -262144 -1 -1 10568 1;
#X obj 146 964 clip~ -1 1;
#X obj 146 758 expr~ if($v1 < $v2 \, $v1 * $v3 / $v2 \, (($v1 - $v2)
* (1 - $v3) / (1 - $v2)) + $v3), f 41;
#X obj 1016 603 vsl 20 135 0 1 0 0 empty empty empty 0 -9 0 10 -262144
-1 -1 3350 1;
#X obj 913 85 inlet modA;
#X obj 1016 85 inlet modB;
#X obj 86 1445 rzero~ -1;
#X obj 86 1468 rzero~ -1;
#X obj 86 1491 rzero~ -1;
#X obj 835 1166 / 24000;
#X obj 86 1274 *~;
#X obj 86 1299 rpole~;
#X obj 86 1324 *~;
#X obj 86 1359 cpole~, f 10;
#X obj 86 1388 cpole~, f 10;
#X msg 835 1101 12000;
#X obj 86 1417 *~ 0.125;
#X obj 907 1122 / 2;
#X obj 835 1191 / 16;
#X obj 907 1064 samplerate~;
#X obj 835 1001 loadbang;
#X obj 113 1254 buttercoef3;
#X obj 907 1093 / 16;
#X floatatom 907 1151 6 0 0 0 - - -, f 6;
#X floatatom 835 1216 7 0 0 0 - - -, f 7;
#X obj 835 1026 t b b;
#X obj 486 1385 block~ 1024 1 16;
#X obj 24 758 *~ -1;
#X obj 24 787 +~ 0.5;
#X obj 24 816 *~ 2;
#X obj 24 989 *~;
#X obj 146 820 -~ 0.5;
#X obj 146 849 *~ 2;
#X obj 146 878 abs~;
#X obj 146 907 -~ 0.5;
#X obj 146 936 *~ 2;
#X obj 146 1030 mux~;
#X obj 1269 812 tgl 15 0 empty empty empty 17 7 0 10 -262144 -1 -1
1 1;
#X obj 1269 85 inlet tglRevSaw;
#X obj 98 1077 mux~;
#X obj 1112 892 tgl 15 0 empty empty empty 17 7 0 10 -262144 -1 -1
1 1;
#X obj 1112 85 inlet tglPhaseDist;
#X obj 418 85 inlet octave;
#X connect 0 0 32 0;
#X connect 1 0 8 0;
#X connect 2 0 46 0;
#X connect 3 0 10 0;
#X connect 5 0 6 1;
#X connect 6 0 1 0;
#X connect 7 0 6 0;
#X connect 8 0 3 0;
#X connect 9 0 35 0;
#X connect 10 0 9 0;
#X connect 11 0 7 0;
#X connect 12 0 8 1;
#X connect 13 0 22 0;
#X connect 14 0 20 0;
#X connect 15 0 18 0;
#X connect 16 0 23 0;
#X connect 17 0 2 1;
#X connect 18 0 17 0;
#X connect 19 0 9 1;
#X connect 20 0 19 0;
#X connect 21 0 10 1;
#X connect 22 0 21 0;
#X connect 23 0 24 0;
#X connect 23 1 25 0;
#X connect 23 2 26 0;
#X connect 23 3 27 0;
#X connect 23 4 28 0;
#X connect 24 0 30 0;
#X connect 25 0 30 0;
#X connect 26 0 30 0;
#X connect 27 0 30 0;
#X connect 28 0 30 0;
#X connect 29 0 0 0;
#X connect 30 0 29 0;
#X connect 31 0 32 0;
#X connect 32 0 2 0;
#X connect 33 0 31 0;
#X connect 34 0 7 0;
#X connect 35 0 38 0;
#X connect 35 0 63 0;
#X connect 35 0 75 0;
#X connect 36 0 38 1;
#X connect 37 0 66 1;
#X connect 37 0 72 0;
#X connect 38 0 67 0;
#X connect 39 0 38 2;
#X connect 40 0 36 0;
#X connect 41 0 39 0;
#X connect 42 0 43 0;
#X connect 43 0 44 0;
#X connect 44 0 4 0;
#X connect 45 0 54 0;
#X connect 46 0 47 0;
#X connect 47 0 48 0;
#X connect 48 0 49 0;
#X connect 49 0 50 0;
#X connect 49 1 50 1;
#X connect 50 0 52 0;
#X connect 51 0 45 0;
#X connect 52 0 42 0;
#X connect 53 0 45 1;
#X connect 53 0 59 0;
#X connect 54 0 57 0;
#X connect 54 0 60 0;
#X connect 55 0 58 0;
#X connect 56 0 61 0;
#X connect 57 0 46 1;
#X connect 57 1 48 1;
#X connect 57 2 47 1;
#X connect 57 3 49 2;
#X connect 57 3 50 2;
#X connect 57 4 49 3;
#X connect 57 5 50 3;
#X connect 58 0 53 0;
#X connect 61 0 51 0;
#X connect 61 1 55 0;
#X connect 63 0 64 0;
#X connect 64 0 65 0;
#X connect 65 0 66 0;
#X connect 66 0 72 1;
#X connect 67 0 68 0;
#X connect 68 0 69 0;
#X connect 69 0 70 0;
#X connect 70 0 71 0;
#X connect 71 0 37 0;
#X connect 72 0 75 1;
#X connect 73 0 72 0;
#X connect 74 0 73 0;
#X connect 75 0 33 0;
#X connect 76 0 75 0;
#X connect 77 0 76 0;
#X connect 78 0 5 0;
#X connect 78 0 34 0;
