#N canvas 735 492 555 300 12;
#X obj 60 167 delay;
#X obj 150 136 * \$1;
#X obj 60 58 inlet bang;
#X obj 60 196 pipe \$2;
#X obj 385 58 inlet nudgeByMs;
#X obj 60 255 outlet;
#X obj 150 58 inlet ms;
#X obj 236 58 inlet delayByDivs;
#X obj 236 87 t b f;
#X connect 0 0 3 0;
#X connect 1 0 0 1;
#X connect 2 0 0 0;
#X connect 3 0 5 0;
#X connect 4 0 3 1;
#X connect 6 0 1 0;
#X connect 7 0 8 0;
#X connect 8 0 1 0;
#X connect 8 1 1 1;
