#N canvas 935 60 966 1256 12;
#X msg 250 811 set \$1;
#X obj 77 389 mtof;
#X obj 77 900 *~;
#X obj 77 469 vline~;
#X obj 77 1220 outlet~;
#X obj 509 227 vsl 17 24 0 0.7 0 1 empty empty volume -4 -7 1 8 -262144
-1 -1 865 1;
#X obj 95 319 * 12;
#X obj 77 346 +;
#X floatatom 77 279 5 0 0 0 - - -, f 5;
#X obj 77 428 pack 0 0, f 111;
#X obj 431 227 hsl 58 11 -5 5 0 1 empty empty detune 19 -6 1 8 -262144
-1 -1 2850 1;
#X obj 455 242 bng 11 250 50 0 empty empty reset 12 4 1 8 -262144 -1
-1;
#X msg 455 288 0;
#X obj 77 673 +~;
#X obj 371 224 vsl 14 26 1 2 0 1 empty empty mult 0 -5 1 7 -262144
-1 -1 0 1;
#X floatatom 394 229 4 0 0 0 - - -, f 4;
#X obj 77 593 *~;
#X obj 77 57 inlet midi;
#X obj 847 57 inlet porta;
#X obj 545 57 inlet multi;
#X obj 641 57 inlet detune;
#X obj 744 57 inlet volume;
#X obj 250 57 inlet wave;
#X obj 509 840 line~;
#X obj 509 811 pack 0 12;
#X obj 431 621 line~;
#X obj 431 592 pack 0 12;
#X obj 394 541 line~;
#X obj 394 512 pack 0 12;
#X obj 250 220 hradio 14 0 1 5 empty empty empty 0 -8 0 10 -261866
-235649 -1 2;
#X obj 128 119 sel 0 1 2 3 4;
#X msg 128 146 sine;
#X msg 166 146 triangle;
#X msg 232 146 square;
#X msg 284 146 sawtooth;
#X msg 350 146 customWave;
#X symbolatom 250 236 10 0 0 0 - - -, f 10;
#X obj 128 173 pack symbol;
#X obj 77 738 phasor~;
#X obj 77 790 +~ 1;
#X obj 77 856 tabread4~;
#X obj 77 764 *~ 2048;
#X obj 332 243 nbx 3 12 -5 5 0 1 empty empty octave 0 -8 1 10 -262144
-1 -1 1 256 0;
#X obj 264 370 +;
#X obj 332 220 bng 12 250 50 0 empty empty empty 17 7 0 10 -262144
-1 -1;
#X obj 352 220 bng 12 250 50 0 empty empty empty 17 7 0 8 -262144 -1
-1;
#X obj 309 371 int;
#X msg 264 329 -1;
#X msg 302 329 1;
#N canvas 1418 282 422 425 once 0;
#X obj 174 194 spigot;
#X obj 107 51 inlet;
#X obj 174 132 t a b;
#X obj 206 162 f 1;
#X obj 174 226 t a b;
#X obj 206 268 f 0;
#X obj 174 309 outlet;
#X obj 280 51 inlet;
#X obj 280 92 bang;
#X obj 280 132 f 1;
#X obj 107 92 route bang;
#X obj 107 132 t b b;
#X obj 107 194 spigot;
#X obj 107 226 t b b;
#X connect 0 0 4 0;
#X connect 1 0 10 0;
#X connect 2 0 0 0;
#X connect 2 1 3 0;
#X connect 3 0 0 1;
#X connect 3 0 12 1;
#X connect 4 0 6 0;
#X connect 4 1 5 0;
#X connect 5 0 3 1;
#X connect 7 0 8 0;
#X connect 8 0 9 0;
#X connect 9 0 3 1;
#X connect 10 0 11 0;
#X connect 10 1 2 0;
#X connect 11 0 12 0;
#X connect 11 1 3 0;
#X connect 12 0 13 0;
#X connect 13 0 6 0;
#X connect 13 1 5 0;
#X restore 340 329 pd once;
#X obj 339 57 inlet octDown;
#X obj 449 57 inlet octUp;
#X obj 164 243 bng 15 250 50 0 empty empty empty 17 7 0 10 -262144
-1 -1;
#X obj 634 1139 block~ 1024 1 16;
#X obj 77 1120 rzero~ -1;
#X obj 77 1143 rzero~ -1;
#X obj 77 1166 rzero~ -1;
#X obj 682 829 / 24000;
#X obj 77 949 *~;
#X obj 77 974 rpole~;
#X obj 77 999 *~;
#X obj 77 1034 cpole~, f 10;
#X obj 77 1063 cpole~, f 10;
#X msg 682 781 12000;
#X obj 77 1092 *~ 0.125;
#X obj 744 801 / 2;
#X obj 682 854 / 16;
#X obj 744 687 samplerate~;
#X obj 682 618 loadbang;
#X floatatom 744 716 8 0 0 0 - - -, f 8;
#X obj 111 919 buttercoef3;
#X obj 744 744 / 16;
#X floatatom 744 773 8 0 0 0 - - -, f 8;
#X floatatom 744 829 6 0 0 0 - - -, f 6;
#X obj 682 647 t b b;
#X obj 682 888 buttercoef3;
#X floatatom 682 1018 7 0 0 0 - - -, f 7;
#X floatatom 696 998 7 0 0 0 - - -, f 7;
#X floatatom 711 978 7 0 0 0 - - -, f 7;
#X floatatom 726 958 7 0 0 0 - - -, f 7;
#X floatatom 741 938 7 0 0 0 - - -, f 7;
#X floatatom 756 918 7 0 0 0 - - -, f 7;
#X floatatom 612 613 7 0 0 0 - - -, f 7;
#X obj 612 577 hsl 128 15 10000 15000 0 1 empty empty empty -2 -8 0
10 -262144 -1 -1 12700 1;
#X text 756 575 freq;
#X connect 0 0 40 0;
#X connect 1 0 9 0;
#X connect 2 0 58 0;
#X connect 3 0 16 0;
#X connect 5 0 24 0;
#X connect 6 0 7 1;
#X connect 7 0 1 0;
#X connect 8 0 7 0;
#X connect 9 0 3 0;
#X connect 10 0 26 0;
#X connect 11 0 12 0;
#X connect 12 0 10 0;
#X connect 13 0 38 0;
#X connect 14 0 15 0;
#X connect 15 0 28 0;
#X connect 16 0 13 0;
#X connect 17 0 8 0;
#X connect 18 0 9 1;
#X connect 19 0 14 0;
#X connect 20 0 10 0;
#X connect 21 0 5 0;
#X connect 22 0 29 0;
#X connect 23 0 2 1;
#X connect 24 0 23 0;
#X connect 25 0 13 1;
#X connect 26 0 25 0;
#X connect 27 0 16 1;
#X connect 28 0 27 0;
#X connect 29 0 30 0;
#X connect 30 0 31 0;
#X connect 30 1 32 0;
#X connect 30 2 33 0;
#X connect 30 3 34 0;
#X connect 30 4 35 0;
#X connect 31 0 37 0;
#X connect 32 0 37 0;
#X connect 33 0 37 0;
#X connect 34 0 37 0;
#X connect 35 0 37 0;
#X connect 36 0 0 0;
#X connect 37 0 36 0;
#X connect 38 0 41 0;
#X connect 39 0 40 0;
#X connect 40 0 2 0;
#X connect 41 0 39 0;
#X connect 42 0 6 0;
#X connect 42 0 49 0;
#X connect 43 0 46 0;
#X connect 44 0 47 0;
#X connect 44 0 52 0;
#X connect 45 0 48 0;
#X connect 45 0 52 0;
#X connect 46 0 43 1;
#X connect 46 0 42 0;
#X connect 47 0 43 0;
#X connect 48 0 43 0;
#X connect 49 0 43 1;
#X connect 50 0 44 0;
#X connect 51 0 45 0;
#X connect 52 0 8 0;
#X connect 54 0 55 0;
#X connect 55 0 56 0;
#X connect 56 0 4 0;
#X connect 57 0 66 0;
#X connect 58 0 59 0;
#X connect 59 0 60 0;
#X connect 60 0 61 0;
#X connect 61 0 62 0;
#X connect 61 1 62 1;
#X connect 62 0 64 0;
#X connect 63 0 57 0;
#X connect 64 0 54 0;
#X connect 65 0 57 1;
#X connect 65 0 73 0;
#X connect 66 0 70 0;
#X connect 66 0 75 0;
#X connect 67 0 69 0;
#X connect 68 0 74 0;
#X connect 69 0 71 0;
#X connect 70 0 58 1;
#X connect 70 1 60 1;
#X connect 70 2 59 1;
#X connect 70 3 61 2;
#X connect 70 3 62 2;
#X connect 70 4 61 3;
#X connect 70 5 62 3;
#X connect 71 0 72 0;
#X connect 72 0 65 0;
#X connect 74 0 63 0;
#X connect 74 1 67 0;
#X connect 75 0 76 0;
#X connect 75 1 77 0;
#X connect 75 2 78 0;
#X connect 75 3 79 0;
#X connect 75 4 80 0;
#X connect 75 5 81 0;
#X connect 82 0 57 0;
#X connect 83 0 82 0;
