#N canvas 415 121 809 826 12;
#X obj 505 451 pvu~;
#X obj 505 537 vu 30 160 empty empty -1 -8 0 10 -1 -1 1 0;
#X msg 554 491 0;
#X obj 291 143 *~;
#X obj 143 143 *~;
#X obj 554 451 bng 21 250 50 0 empty empty empty 17 7 0 10 -260999
-258049 -1;
#X obj 653 88 vsl 13 25 0 1 0 1 empty empty empty 0 -9 0 10 -260225
-1 -1 912 1;
#X obj 143 345 mux~;
#X obj 503 306 hradio 17 0 1 2 empty empty COMP 0 -8 1 10 -260993 -119745
-1 1;
#X obj 291 345 mux~;
#X obj 143 51 inlet~ L;
#X obj 291 51 inlet~ R;
#X obj 143 751 outlet~ L;
#X obj 291 751 outlet~ R;
#X obj 383 49 inlet controls;
#X obj 503 49 inlet compToggle;
#X obj 168 180 metis_comp;
#X obj 316 180 metis_comp;
#X obj 653 49 inlet mainVol;
#X obj 473 751 outlet clip;
#X obj 441 684 > 0;
#X obj 441 713 sel 0;
#X obj 143 711 clip~ -1 1;
#X obj 291 711 clip~ -1 1;
#X connect 0 0 1 0;
#X connect 0 0 20 0;
#X connect 0 1 1 1;
#X connect 2 0 1 1;
#X connect 3 0 9 0;
#X connect 3 0 17 0;
#X connect 4 0 7 0;
#X connect 4 0 16 0;
#X connect 5 0 2 0;
#X connect 6 0 3 1;
#X connect 6 0 4 1;
#X connect 7 0 22 0;
#X connect 7 0 0 0;
#X connect 8 0 7 0;
#X connect 8 0 9 0;
#X connect 9 0 23 0;
#X connect 9 0 0 0;
#X connect 10 0 4 0;
#X connect 11 0 3 0;
#X connect 14 0 16 1;
#X connect 14 0 17 1;
#X connect 15 0 8 0;
#X connect 16 0 7 1;
#X connect 17 0 9 1;
#X connect 18 0 6 0;
#X connect 20 0 21 0;
#X connect 21 1 19 0;
#X connect 22 0 12 0;
#X connect 23 0 13 0;
