#N canvas 413 113 1415 827 12;
#X obj 74 41 inlet~;
#X obj 265 41 inlet~;
#X obj 153 731 outlet~;
#X obj 348 731 outlet~;
#X obj 1267 526 hsl 70 15 0 1 0 1 empty empty echo\ volume 0 -9 1 10
-262144 -1 -1 1380 1;
#X obj 153 678 *~;
#X obj 348 678 *~;
#X obj 74 769 delwrite~ \$0-delayL 1000;
#X obj 265 769 delwrite~ \$0-delayR 1000;
#X obj 93 332 pack 0 30;
#X obj 93 361 line~;
#X obj 281 269 hsl 37 22 1 1000 0 1 empty empty time\ R -2 -8 1 10
-262144 -1 -1 2380 1;
#X obj 281 332 pack 0 30;
#X obj 281 361 line~;
#X obj 557 87 hsl 70 15 1 1000 0 1 empty empty time\ L+R -2 -8 1 10
-262144 -1 -1 4562 1;
#X obj 93 392 delread4~ \$0-delayR;
#X obj 281 392 delread4~ \$0-delayL;
#X obj 1137 445 hsl 70 15 0 0.6 0 1 empty empty feedback 1 -8 1 10
-262144 -1 -1 5980 1;
#X obj 153 600 *~;
#X obj 349 600 *~;
#X floatatom 1137 468 5 0 0 0 - - -, f 5;
#X obj 707 78 hradio 8 0 1 8 empty empty empty 0 -8 0 10 -262144 -1
-1 4;
#X obj 93 300 /;
#X obj 707 95 + 1;
#X obj 687 134 t b f;
#X obj 281 300 /;
#X obj 807 95 + 1;
#X obj 787 134 t b f;
#X obj 807 78 hradio 8 0 1 8 empty empty empty 0 -8 0 10 -262144 -1
-1 2;
#X obj 93 493 lop~;
#X obj 93 552 hip~;
#X obj 281 493 lop~;
#X obj 281 552 hip~;
#X obj 897 379 line;
#X obj 997 435 line;
#X obj 997 406 pack 0 100;
#X obj 897 350 pack 0 100;
#X obj 93 269 hsl 37 22 1 1000 0 1 empty empty time\ L -2 -8 1 10 -262144
-1 -1 2380 1;
#X obj 347 40 inlet timeL;
#X obj 447 40 inlet timeR;
#X obj 557 40 inlet timeL+R;
#X obj 687 40 inlet multL;
#X obj 787 40 inlet multR;
#X obj 897 40 inlet lopFreq;
#X obj 997 40 inlet hipFreq;
#X obj 1137 40 inlet feedback;
#X obj 1267 40 inlet echoVol;
#X obj 897 70 * 19800;
#X obj 897 99 + 200;
#X obj 997 70 * 19800;
#X obj 997 99 + 200;
#X connect 0 0 7 0;
#X connect 1 0 8 0;
#X connect 4 0 5 1;
#X connect 4 0 6 1;
#X connect 5 0 2 0;
#X connect 6 0 3 0;
#X connect 9 0 10 0;
#X connect 10 0 15 0;
#X connect 11 0 25 0;
#X connect 12 0 13 0;
#X connect 13 0 16 0;
#X connect 14 0 11 0;
#X connect 14 0 37 0;
#X connect 15 0 29 0;
#X connect 16 0 31 0;
#X connect 17 0 20 0;
#X connect 18 0 7 0;
#X connect 19 0 8 0;
#X connect 20 0 18 1;
#X connect 20 0 19 1;
#X connect 21 0 23 0;
#X connect 22 0 9 0;
#X connect 23 0 24 0;
#X connect 24 0 37 0;
#X connect 24 1 22 1;
#X connect 25 0 12 0;
#X connect 26 0 27 0;
#X connect 27 0 11 0;
#X connect 27 1 25 1;
#X connect 28 0 26 0;
#X connect 29 0 30 0;
#X connect 30 0 5 0;
#X connect 30 0 18 0;
#X connect 31 0 32 0;
#X connect 32 0 6 0;
#X connect 32 0 19 0;
#X connect 33 0 31 1;
#X connect 33 0 29 1;
#X connect 34 0 32 1;
#X connect 34 0 30 1;
#X connect 35 0 34 0;
#X connect 36 0 33 0;
#X connect 37 0 22 0;
#X connect 38 0 37 0;
#X connect 39 0 11 0;
#X connect 40 0 14 0;
#X connect 41 0 24 0;
#X connect 42 0 27 0;
#X connect 43 0 47 0;
#X connect 44 0 49 0;
#X connect 45 0 17 0;
#X connect 46 0 4 0;
#X connect 47 0 48 0;
#X connect 48 0 36 0;
#X connect 49 0 50 0;
#X connect 50 0 35 0;
