#N canvas 1362 520 792 702 12;
#X obj 61 60 inlet;
#X obj 330 60 inlet;
#X text 57 35 trigger;
#X obj 61 198 sel 0;
#X obj 284 311 t b;
#X obj 284 379 f \$1, f 7;
#X obj 284 415 pack 0 \$2, f 15;
#X obj 386 60 inlet;
#X obj 422 415 del \$2;
#X obj 248 649 line~;
#X obj 422 448 f \$4, f 19;
#X obj 422 547 pack 0 \$3;
#X obj 482 60 inlet;
#X obj 552 60 inlet;
#X obj 625 60 inlet;
#X msg 86 246 stop;
#X obj 61 580 pack 0 \$5, f 81;
#X text 330 35 level;
#X obj 422 514 * \$1;
#X obj 248 674 outlet~;
#X obj 422 481 * 0.01;
#X text 382 35 attack;
#X text 483 35 decay;
#X text 545 35 sustain;
#X text 622 35 release;
#X obj 216 233 moses;
#X obj 216 271 t b b;
#X msg 248 415 0;
#X text 334 20 peak;
#X obj 308 674 outlet;
#X obj 308 649 line 0 1;
#X floatatom 361 619 5 0 0 0 - - -, f 5;
#X msg 99 165 0;
#X obj 699 60 inlet;
#X text 702 35 gate;
#X obj 638 138 del \$6;
#X obj 61 89 bng 15 250 50 0 empty empty empty 17 7 0 10 -262144 -1
-1;
#X msg 61 165 1;
#X obj 677 110 max;
#X obj 677 87 bng 15 250 50 0 empty empty empty 17 7 0 10 -262144 -1
-1;
#X connect 0 0 36 0;
#X connect 1 0 5 1;
#X connect 1 0 18 1;
#X connect 3 0 15 0;
#X connect 3 0 16 0;
#X connect 3 1 25 0;
#X connect 4 0 5 0;
#X connect 4 0 8 0;
#X connect 5 0 6 0;
#X connect 6 0 9 0;
#X connect 6 0 30 0;
#X connect 7 0 6 1;
#X connect 7 0 8 1;
#X connect 8 0 10 0;
#X connect 9 0 19 0;
#X connect 10 0 20 0;
#X connect 11 0 9 0;
#X connect 11 0 30 0;
#X connect 12 0 11 1;
#X connect 12 0 38 0;
#X connect 13 0 10 1;
#X connect 14 0 16 1;
#X connect 15 0 8 0;
#X connect 16 0 9 0;
#X connect 16 0 30 0;
#X connect 18 0 11 0;
#X connect 20 0 18 0;
#X connect 25 0 26 0;
#X connect 25 1 4 0;
#X connect 26 0 4 0;
#X connect 26 1 27 0;
#X connect 27 0 9 0;
#X connect 27 0 30 0;
#X connect 30 0 29 0;
#X connect 31 0 30 2;
#X connect 32 0 3 0;
#X connect 33 0 38 1;
#X connect 33 0 39 0;
#X connect 35 0 32 0;
#X connect 36 0 35 0;
#X connect 36 0 37 0;
#X connect 37 0 3 0;
#X connect 38 0 35 1;
#X connect 39 0 38 0;
