#N canvas 1126 227 770 476 12;
#X obj 46 56 inlet~ L;
#X obj 226 56 inlet~ R;
#X obj 396 56 inlet selector;
#X obj 396 92 hradio 15 0 0 4 empty empty empty 0 -8 0 10 -262144 -1
-1 0;
#X obj 396 156 == 0;
#X obj 446 156 == 1;
#X obj 496 156 == 2;
#X obj 546 156 == 3;
#X obj 46 323 *~;
#X obj 99 323 *~;
#X obj 46 392 dac~ 1 2;
#X obj 156 323 *~;
#X obj 209 323 *~;
#X obj 266 323 *~;
#X obj 319 323 *~;
#X obj 376 323 *~;
#X obj 429 323 *~;
#X obj 156 392 dac~ 3 4;
#X obj 266 392 dac~ 5 6;
#X obj 376 392 dac~ 7 8;
#X msg 396 185 \$1 10;
#X obj 396 214 line~;
#X msg 446 185 \$1 10;
#X obj 446 214 line~;
#X msg 496 185 \$1 10;
#X obj 496 214 line~;
#X msg 546 185 \$1 10;
#X obj 546 214 line~;
#X connect 0 0 8 0;
#X connect 0 0 11 0;
#X connect 0 0 15 0;
#X connect 0 0 13 0;
#X connect 1 0 9 0;
#X connect 1 0 12 0;
#X connect 1 0 16 0;
#X connect 1 0 14 0;
#X connect 2 0 3 0;
#X connect 3 0 4 0;
#X connect 3 0 5 0;
#X connect 3 0 7 0;
#X connect 3 0 6 0;
#X connect 4 0 20 0;
#X connect 5 0 22 0;
#X connect 6 0 24 0;
#X connect 7 0 26 0;
#X connect 8 0 10 0;
#X connect 9 0 10 1;
#X connect 11 0 17 0;
#X connect 12 0 17 1;
#X connect 13 0 18 0;
#X connect 14 0 18 1;
#X connect 15 0 19 0;
#X connect 16 0 19 1;
#X connect 20 0 21 0;
#X connect 21 0 8 1;
#X connect 21 0 9 1;
#X connect 22 0 23 0;
#X connect 23 0 12 1;
#X connect 23 0 11 1;
#X connect 24 0 25 0;
#X connect 25 0 14 1;
#X connect 25 0 13 1;
#X connect 26 0 27 0;
#X connect 27 0 16 1;
#X connect 27 0 15 1;
