#N canvas 355 113 1565 899 12;
#X obj 112 53 tgl 38 0 empty empty start 7 -10 1 12 -259393 -1 -1 1
1;
#X obj 282 410 metro;
#X obj 466 277 /, f 6;
#X obj 570 277 / 240;
#X msg 466 231 15000;
#X floatatom 1247 466 10 0 0 1 quarter - -, f 10;
#X floatatom 1107 362 10 0 0 1 hz/4 - -, f 10;
#X obj 624 277 / 60;
#X floatatom 1027 310 10 0 0 1 hz - -, f 10;
#X floatatom 1177 414 10 0 0 1 bar - -, f 10;
#X obj 528 277 /;
#X msg 528 231 60000;
#X obj 466 192 t b f, f 23;
#X obj 381 488 f;
#X obj 489 457 + 1;
#X obj 381 525 sel 0;
#X obj 491 525 mod 64;
#X obj 491 562 sel 0;
#X obj 489 481 mod 128;
#X obj 596 562 mod 32;
#X obj 596 599 sel 0;
#X obj 702 636 sel 0;
#X obj 702 599 mod 16;
#X msg 381 441 0;
#X obj 381 412 bng 15 250 50 0 empty empty empty 17 7 0 10 -262144
-1 -1;
#X obj 193 412 bng 15 250 50 0 empty empty empty 17 7 0 10 -262144
-1 -1;
#X floatatom 466 157 5 0 0 1 bpm - -, f 5;
#X msg 34 115 \; pd dsp 1;
#X obj 381 554 bng 15 250 50 0 empty empty empty 17 7 0 10 -262144
-1 -1;
#X obj 491 591 bng 15 250 50 0 empty empty empty 17 7 0 10 -262144
-1 -1;
#X obj 596 628 bng 15 250 50 0 empty empty empty 17 7 0 10 -262144
-1 -1;
#X obj 702 665 bng 15 250 50 0 empty empty empty 17 7 0 10 -262144
-1 -1;
#X obj 161 102 sel 1;
#X obj 161 125 bng 15 250 50 0 empty empty empty 17 7 0 10 -262144
-1 -1;
#X obj 112 16 inlet run;
#X obj 466 16 inlet bpm;
#X obj 112 817 outlet run;
#X obj 282 817 outlet metro;
#X obj 381 817 outlet tick128;
#X obj 193 817 outlet stop;
#X obj 492 817 outlet tick64;
#X obj 596 817 outlet tick32;
#X obj 702 817 outlet tick16;
#X obj 1027 817 outlet hz;
#X obj 1107 777 outlet hzQuarter;
#X obj 1177 817 outlet bar;
#X obj 1247 777 outlet barQuarter;
#X obj 812 676 sel 0;
#X obj 812 705 bng 15 250 50 0 empty empty empty 17 7 0 10 -262144
-1 -1;
#X obj 812 817 outlet tick8;
#X obj 812 639 mod 8;
#X obj 912 716 sel 0;
#X obj 912 745 bng 15 250 50 0 empty empty empty 17 7 0 10 -262144
-1 -1;
#X obj 912 679 mod 4;
#X obj 912 817 outlet tick4;
#X connect 0 0 1 0;
#X connect 0 0 27 0;
#X connect 0 0 32 0;
#X connect 0 0 36 0;
#X connect 1 0 13 0;
#X connect 1 0 37 0;
#X connect 2 0 5 0;
#X connect 2 0 1 1;
#X connect 3 0 6 0;
#X connect 4 0 2 0;
#X connect 5 0 46 0;
#X connect 6 0 44 0;
#X connect 7 0 8 0;
#X connect 8 0 43 0;
#X connect 9 0 45 0;
#X connect 10 0 9 0;
#X connect 11 0 10 0;
#X connect 12 0 4 0;
#X connect 12 0 11 0;
#X connect 12 1 2 1;
#X connect 12 1 3 0;
#X connect 12 1 7 0;
#X connect 12 1 10 1;
#X connect 13 0 14 0;
#X connect 13 0 16 0;
#X connect 13 0 15 0;
#X connect 14 0 18 0;
#X connect 15 0 28 0;
#X connect 16 0 19 0;
#X connect 16 0 17 0;
#X connect 17 0 29 0;
#X connect 18 0 13 1;
#X connect 19 0 22 0;
#X connect 19 0 20 0;
#X connect 20 0 30 0;
#X connect 21 0 31 0;
#X connect 22 0 50 0;
#X connect 22 0 21 0;
#X connect 23 0 13 0;
#X connect 24 0 23 0;
#X connect 25 0 39 0;
#X connect 26 0 12 0;
#X connect 28 0 38 0;
#X connect 29 0 40 0;
#X connect 30 0 41 0;
#X connect 31 0 42 0;
#X connect 32 0 33 0;
#X connect 32 1 25 0;
#X connect 33 0 26 0;
#X connect 33 0 23 0;
#X connect 34 0 0 0;
#X connect 35 0 26 0;
#X connect 47 0 48 0;
#X connect 48 0 49 0;
#X connect 50 0 47 0;
#X connect 50 0 53 0;
#X connect 51 0 52 0;
#X connect 52 0 54 0;
#X connect 53 0 51 0;
