#N canvas 191 143 754 480 12;
#X obj 512 210 soundfiler;
#X obj 260 217 tgl 15 0 empty empty loop 18 6 1 10 -262144 -1 -1 0
1;
#X obj 221 251 spigot;
#X obj 65 217 bng 15 250 50 0 empty empty play 18 6 1 10 -262144 -1
-1;
#X msg 155 251 stop;
#X obj 155 217 bng 15 250 50 0 empty empty stop 18 6 1 10 -262144 -1
-1;
#X obj 65 403 outlet~;
#X msg 512 178 read -resize \$1 \$0-sample;
#X obj 65 302 tabplay~ \$0-sample;
#X obj 512 272 samplerate~;
#X floatatom 512 301 5 0 0 0 - - -, f 5;
#X obj 512 239 t f b;
#X obj 512 329 / 1000;
#X obj 512 356 /;
#X obj 346 403 outlet lengthInSamples;
#X obj 512 403 outlet lengthInMs;
#X obj 536 116 array define \$0-sample;
#X obj 65 58 inlet play;
#X obj 155 58 inlet stop;
#X obj 260 58 inlet loop;
#X obj 356 58 inlet gain;
#X obj 512 58 inlet sampleName;
#X obj 65 343 *~ 1, f 42;
#X connect 0 0 11 0;
#X connect 1 0 2 1;
#X connect 2 0 8 0;
#X connect 3 0 8 0;
#X connect 4 0 8 0;
#X connect 5 0 4 0;
#X connect 7 0 0 0;
#X connect 8 0 22 0;
#X connect 8 1 2 0;
#X connect 9 0 10 0;
#X connect 10 0 12 0;
#X connect 11 0 14 0;
#X connect 11 0 13 0;
#X connect 11 1 9 0;
#X connect 12 0 13 1;
#X connect 13 0 15 0;
#X connect 17 0 3 0;
#X connect 18 0 5 0;
#X connect 19 0 1 0;
#X connect 20 0 22 1;
#X connect 21 0 7 0;
#X connect 22 0 6 0;
