#N canvas 270 116 651 619 12;
#X obj 300 206 folder_list;
#X obj 300 241 t a b;
#X obj 513 279 counter;
#X floatatom 513 309 5 0 0 0 - - -, f 5;
#X msg 513 250 set 1;
#X obj 300 484 msgfile;
#X obj 495 339 int;
#X msg 300 423 add \$1;
#X obj 300 171 t a b b, f 12;
#X msg 381 423 clear;
#X obj 463 368 random;
#X msg 509 423 goto \$1;
#X msg 463 423 this;
#X obj 463 395 t b a, f 7;
#X msg 62 421 print;
#X obj 463 309 t b b;
#X obj 300 136 route symbol bang, f 27;
#X obj 270 94 bng 15 250 50 0 empty empty empty 17 7 0 10 -262144 -1
-1;
#X obj 108 46 inlet getRandomSample;
#X obj 300 47 inlet sampleFolder;
#X text 108 421 what's currently loaded;
#X obj 300 513 outlet filename;
#X connect 0 0 1 0;
#X connect 1 0 7 0;
#X connect 1 1 2 0;
#X connect 2 0 3 0;
#X connect 3 0 6 1;
#X connect 4 0 2 0;
#X connect 5 0 21 0;
#X connect 6 0 10 1;
#X connect 7 0 5 0;
#X connect 8 0 0 0;
#X connect 8 1 4 0;
#X connect 8 2 9 0;
#X connect 9 0 5 0;
#X connect 10 0 13 0;
#X connect 11 0 5 0;
#X connect 12 0 5 0;
#X connect 13 0 12 0;
#X connect 13 1 11 0;
#X connect 14 0 5 0;
#X connect 15 0 10 0;
#X connect 15 1 6 0;
#X connect 16 0 8 0;
#X connect 16 1 15 0;
#X connect 17 0 16 0;
#X connect 18 0 17 0;
#X connect 19 0 16 0;
