#N canvas 168 185 923 931 12;
#X obj 144 752 *~ 0.125;
#X obj 144 775 rzero~ -1;
#X obj 144 798 rzero~ -1;
#X obj 144 821 rzero~ -1;
#X obj 144 129 phasor~;
#X obj 287 92 block~ 1024 1 16;
#X obj 144 94 inlet;
#X obj 144 855 outlet~;
#X obj 144 649 rpole~ 0.87467;
#X obj 144 626 *~ 0.12532;
#X obj 144 672 *~ 0.01668;
#X obj 233 449 buttercoef3;
#X floatatom 233 373 7 0 0 0 - - -, f 7;
#X obj 233 423 / 16;
#X floatatom 201 597 7 0 0 0 - - -, f 7;
#X floatatom 226 566 7 0 0 0 - - -, f 7;
#X floatatom 262 539 7 0 0 0 - - -, f 7;
#X floatatom 387 519 7 0 0 0 - - -, f 7;
#X floatatom 552 499 7 0 0 0 - - -, f 7;
#X floatatom 567 479 7 0 0 0 - - -, f 7;
#X text 257 598 normalizer for rpole~;
#X text 285 566 normalizer for cpole~;
#X text 320 540 coef for rpole~;
#X text 446 521 coef for cpole~ real part;
#X text 627 481 coef for cpole~ imag part;
#X text 623 499 (same \, other cpole~);
#X obj 144 695 cpole~ 0.9293 0.10812;
#X obj 144 721 cpole~ 0.9293 -0.10812;
#X msg 233 348 15000;
#X text 283 347 desired cutoff frequency;
#X text 293 399 divide by nyquist frequency of this subpatch \, which
is 22050*16 because of the 16-times oversampling.;
#X text 229 322 Here is how to calculate the filter coefficients:;
#X text 358 144 These objects make a 3-pole \, 3-zero Butterworth low-pass
filter with cutoff at 15kHz (assuming 16x44100 sample rate). The filter
was designed using the "buttercoef3" abstraction introduced in patch
H13.butterworth.pd in this series.;
#X obj 573 244 samplerate~;
#X floatatom 573 267 11 0 0 0 - - -, f 11;
#X obj 573 223 bng 15 250 50 0 empty empty empty 17 7 0 10 -262144
-1 -1;
#X obj 573 289 / 16;
#X floatatom 573 312 7 0 0 0 - - -, f 7;
#X obj 573 334 / 2;
#X floatatom 573 357 8 0 0 0 - - -, f 8;
#X obj 233 398 /;
#X connect 0 0 1 0;
#X connect 1 0 2 0;
#X connect 2 0 3 0;
#X connect 3 0 7 0;
#X connect 4 0 9 0;
#X connect 6 0 4 0;
#X connect 8 0 10 0;
#X connect 9 0 8 0;
#X connect 10 0 26 0;
#X connect 11 0 14 0;
#X connect 11 1 15 0;
#X connect 11 2 16 0;
#X connect 11 3 17 0;
#X connect 11 4 18 0;
#X connect 11 5 19 0;
#X connect 12 0 40 0;
#X connect 13 0 11 0;
#X connect 14 0 9 1;
#X connect 15 0 10 1;
#X connect 16 0 8 1;
#X connect 17 0 26 2;
#X connect 17 0 27 2;
#X connect 18 0 27 3;
#X connect 19 0 26 3;
#X connect 26 0 27 0;
#X connect 26 1 27 1;
#X connect 27 0 0 0;
#X connect 28 0 12 0;
#X connect 33 0 34 0;
#X connect 34 0 36 0;
#X connect 35 0 33 0;
#X connect 36 0 37 0;
#X connect 37 0 38 0;
#X connect 38 0 39 0;
#X connect 39 0 40 1;
#X connect 40 0 13 0;
